<svg xmlns="http://www.w3.org/2000/svg" width="1600" height="600" viewBox="0 0 1600 600"><defs><linearGradient id="bg" x2="1" y2="1"><stop stop-color="#172027"/><stop offset="1" stop-color="#35464D"/></linearGradient></defs><path fill="url(#bg)" d="M0 0h1600v600H0z"/><g fill="none" stroke="#C5D5D2" opacity=".22" stroke-width="2"><path d="M1000-160v880M1110-160v880M1220-160v880M1330-160v880M1440-160v880M1550-160v880M880 80h850M880 190h850M880 300h850M880 410h850M880 520h850"/><circle cx="1280" cy="310" r="260"/><circle cx="1280" cy="310" r="200"/></g><path fill="none" stroke="#ABC6BB" opacity=".8" stroke-width="3" d="M0 520C300 200 510 650 880 300S1320 90 1600 360"/><path fill="none" stroke="#ABC6BB" opacity=".3" stroke-width="2" d="M0 550C300 230 510 680 880 330S1320 120 1600 390"/><circle cx="879" cy="300" r="8" fill="#D5E6DA"/></svg>
