<svg xmlns="http://www.w3.org/2000/svg" width="1600" height="600" viewBox="0 0 1600 600"><path fill="#E2E8DA" d="M0 0h1600v600H0z"/><circle cx="1320" cy="70" r="390" fill="#CCD8C3"/><circle cx="160" cy="630" r="380" fill="#D5DFCE"/><g fill="none" stroke="#668475" stroke-width="3" opacity=".75"><path d="M1100 650c-90-250-100-430 10-680M1045 480c-190-10-205-150-150-230 120 40 160 120 150 230M1060 270c130-10 190-85 175-200-120 10-170 70-175 200M1090 60c-110-70-110-150-30-220"/><path d="M1370 650c-10-200 20-280 100-430M1400 480c-160-25-195-100-160-200 100 15 160 100 160 200M1440 350c140-10 200-85 180-165-105-10-155 65-180 165"/></g><path d="M0 450h640M0 470h400" stroke="#A9BBA7" stroke-width="2"/></svg>
